<svg viewBox="0 0 820 210" xmlns="http://www.w3.org/2000/svg" font-family="Segoe UI, system-ui, -apple-system, sans-serif">
  <defs>
    <marker id="arrow" markerWidth="9" markerHeight="9" refX="6" refY="3" orient="auto" markerUnits="strokeWidth">
      <path d="M0,0 L6,3 L0,6 Z" fill="#64748b"/>
    </marker>
  </defs>

  <text x="40" y="26" font-size="13" fill="#64748b">Input: millions of 3D Gaussians</text>

  <!-- Stage 1 -->
  <rect x="40" y="50" width="150" height="92" rx="10" fill="#f1f5f9" stroke="#cbd5e1"/>
  <circle cx="62" cy="72" r="11" fill="#64748b"/>
  <text x="62" y="76" font-size="12" fill="#fff" text-anchor="middle">1</text>
  <text x="82" y="76" font-size="15" font-weight="600" fill="#1e293b">Cull &amp; Project</text>
  <text x="56" y="103" font-size="11.5" fill="#475569">drop off-screen</text>
  <text x="56" y="120" font-size="11.5" fill="#475569">Gaussians, flatten</text>
  <text x="56" y="137" font-size="11.5" fill="#475569">3D &#8594; 2D ellipses</text>

  <!-- Stage 2 -->
  <rect x="240" y="50" width="150" height="92" rx="10" fill="#f1f5f9" stroke="#cbd5e1"/>
  <circle cx="262" cy="72" r="11" fill="#64748b"/>
  <text x="262" y="76" font-size="12" fill="#fff" text-anchor="middle">2</text>
  <text x="282" y="76" font-size="15" font-weight="600" fill="#1e293b">Tile</text>
  <text x="256" y="103" font-size="11.5" fill="#475569">split screen into</text>
  <text x="256" y="120" font-size="11.5" fill="#475569">16&#215;16 tiles, copy</text>
  <text x="256" y="137" font-size="11.5" fill="#475569">splats per tile</text>

  <!-- Stage 3 (accent) -->
  <rect x="440" y="50" width="150" height="92" rx="10" fill="#e0f2fe" stroke="#38bdf8"/>
  <circle cx="462" cy="72" r="11" fill="#0284c7"/>
  <text x="462" y="76" font-size="12" fill="#fff" text-anchor="middle">3</text>
  <text x="482" y="76" font-size="15" font-weight="600" fill="#0c4a6e">Sort once</text>
  <text x="456" y="103" font-size="11.5" fill="#075985">one GPU radix</text>
  <text x="456" y="120" font-size="11.5" fill="#075985">sort across the</text>
  <text x="456" y="137" font-size="11.5" fill="#075985">whole frame</text>

  <!-- Stage 4 -->
  <rect x="640" y="50" width="150" height="92" rx="10" fill="#f1f5f9" stroke="#cbd5e1"/>
  <circle cx="662" cy="72" r="11" fill="#64748b"/>
  <text x="662" y="76" font-size="12" fill="#fff" text-anchor="middle">4</text>
  <text x="682" y="76" font-size="15" font-weight="600" fill="#1e293b">Blend</text>
  <text x="656" y="103" font-size="11.5" fill="#475569">alpha-composite</text>
  <text x="656" y="120" font-size="11.5" fill="#475569">front-to-back,</text>
  <text x="656" y="137" font-size="11.5" fill="#475569">stop early</text>

  <!-- arrows -->
  <line x1="195" y1="96" x2="233" y2="96" stroke="#64748b" stroke-width="2" marker-end="url(#arrow)"/>
  <line x1="395" y1="96" x2="433" y2="96" stroke="#64748b" stroke-width="2" marker-end="url(#arrow)"/>
  <line x1="595" y1="96" x2="633" y2="96" stroke="#64748b" stroke-width="2" marker-end="url(#arrow)"/>

  <text x="790" y="170" font-size="13" fill="#64748b" text-anchor="end">Output: rendered frame &#8594;</text>
</svg>
